<svg width="32" height="32" viewBox="0 0 32 32" xmlns="http://www.w3.org/2000/svg">
  <style>
    @keyframes pulse {
      0%, 43% { opacity: 0; }
      44%, 47% { opacity: 1; }
      48%, 100% { opacity: 0; }
    }
    
    @keyframes glow {
      0%, 42% { filter: brightness(1); }
      44%, 47% { filter: brightness(1.2); }
      48%, 100% { filter: brightness(1); }
    }
    
    .electric-pulse {
      animation: pulse 5s ease-in-out infinite;
      animation-delay: 0s;
    }
    
    .brain-glow {
      animation: glow 5s ease-in-out infinite;
      animation-delay: 0s;
    }
  </style>
  
  <g transform="translate(0, 5)">
    <!-- Brain with more recognizable shape -->
    <g class="brain-glow">
      <!-- Multiple rounded bumps on top (characteristic of brain) -->
      <rect x="9" y="3" width="3" height="1" fill="#ff6b9d"/>
      <rect x="13" y="2" width="3" height="1" fill="#ff6b9d"/>
      <rect x="17" y="3" width="3" height="1" fill="#ff6b9d"/>
      <rect x="21" y="3" width="3" height="1" fill="#ff6b9d"/>
      
      <!-- Second row of bumps -->
      <rect x="8" y="4" width="5" height="1" fill="#ff6b9d"/>
      <rect x="12" y="3" width="5" height="1" fill="#ff6b9d"/>
      <rect x="16" y="4" width="5" height="1" fill="#ff6b9d"/>
      <rect x="20" y="4" width="5" height="1" fill="#ff6b9d"/>
      
      <!-- Main rounded top -->
      <rect x="7" y="5" width="19" height="1" fill="#ff6b9d"/>
      <rect x="6" y="6" width="21" height="1" fill="#ff6b9d"/>
      
      <!-- Characteristic bulging middle -->
      <rect x="5" y="7" width="23" height="1" fill="#ff6b9d"/>
      <rect x="5" y="8" width="23" height="1" fill="#ff6b9d"/>
      <rect x="5" y="9" width="23" height="1" fill="#ff6b9d"/>
      <rect x="6" y="10" width="21" height="1" fill="#ff6b9d"/>
      <rect x="6" y="11" width="21" height="1" fill="#ff6b9d"/>
      
      <!-- Tapering lower portion -->
      <rect x="7" y="12" width="19" height="1" fill="#ff6b9d"/>
      <rect x="8" y="13" width="17" height="1" fill="#ff6b9d"/>
      <rect x="9" y="14" width="15" height="1" fill="#ff6b9d"/>
      <rect x="11" y="15" width="11" height="1" fill="#ff6b9d"/>
      
      <!-- Small brain stem -->
      <rect x="14" y="16" width="5" height="1" fill="#ff6b9d"/>
      <rect x="15" y="17" width="3" height="1" fill="#ff6b9d"/>
      
      <!-- Characteristic squiggly brain folds all over -->
      <!-- Top folds -->
      <rect x="10" y="4" width="2" height="1" fill="#e05589"/>
      <rect x="14" y="3" width="1" height="2" fill="#e05589"/>
      <rect x="18" y="4" width="2" height="1" fill="#e05589"/>
      <rect x="22" y="5" width="2" height="1" fill="#e05589"/>
      
      <!-- Major curved grooves (like real brain sulci) -->
      <rect x="8" y="6" width="3" height="1" fill="#e05589"/>
      <rect x="9" y="7" width="2" height="1" fill="#e05589"/>
      <rect x="10" y="8" width="2" height="1" fill="#e05589"/>
      
      <rect x="19" y="6" width="3" height="1" fill="#e05589"/>
      <rect x="20" y="7" width="2" height="1" fill="#e05589"/>
      <rect x="21" y="8" width="2" height="1" fill="#e05589"/>
      
      <!-- Central folds -->
      <rect x="13" y="7" width="2" height="1" fill="#e05589"/>
      <rect x="14" y="8" width="3" height="1" fill="#e05589"/>
      <rect x="15" y="9" width="2" height="1" fill="#e05589"/>
      
      <!-- Lower folds -->
      <rect x="7" y="10" width="3" height="1" fill="#e05589"/>
      <rect x="12" y="11" width="2" height="1" fill="#e05589"/>
      <rect x="18" y="10" width="3" height="1" fill="#e05589"/>
      <rect x="20" y="12" width="2" height="1" fill="#e05589"/>
      <rect x="11" y="13" width="3" height="1" fill="#e05589"/>
      <rect x="17" y="13" width="2" height="1" fill="#e05589"/>
      
      <!-- Purple depth for center (subtle) -->
      <rect x="15" y="5" width="1" height="1" fill="#d64979"/>
      <rect x="16" y="6" width="1" height="2" fill="#d64979"/>
      <rect x="15" y="8" width="1" height="1" fill="#d64979"/>
      <rect x="16" y="9" width="1" height="2" fill="#d64979"/>
      <rect x="15" y="11" width="1" height="1" fill="#d64979"/>
      
      <!-- Light pink highlights -->
      <rect x="11" y="5" width="1" height="1" fill="#ffa4c4"/>
      <rect x="20" y="6" width="1" height="1" fill="#ffa4c4"/>
      <rect x="24" y="8" width="1" height="1" fill="#ffa4c4"/>
    </g>
    
    <!-- Electric pulse -->
    <g class="electric-pulse">
      <!-- Lightning across surface -->
      <rect x="12" y="2" width="2" height="1" fill="#ffeb3b"/>
      <rect x="14" y="3" width="2" height="1" fill="#fff"/>
      <rect x="16" y="4" width="2" height="1" fill="#ffeb3b"/>
      <rect x="17" y="5" width="2" height="1" fill="#fff59d"/>
      <rect x="18" y="6" width="2" height="1" fill="#ffeb3b"/>
      
      <!-- Side sparks -->
      <rect x="9" y="5" width="1" height="1" fill="#fff59d"/>
      <rect x="23" y="7" width="1" height="1" fill="#fff59d"/>
      <rect x="11" y="9" width="1" height="1" fill="#ffeb3b"/>
      <rect x="22" y="10" width="1" height="1" fill="#ffeb3b"/>
      
      <!-- Particles -->
      <rect x="7" y="4" width="1" height="1" fill="#fff"/>
      <rect x="26" y="8" width="1" height="1" fill="#fff"/>
    </g>
    
    <!-- Shadow -->
    <ellipse cx="16" cy="19" rx="6" ry="1" fill="#000" opacity="0.1"/>
  </g>
</svg>
