<svg width="32" height="32" viewBox="0 0 32 32" xmlns="http://www.w3.org/2000/svg">
  <style>
    @keyframes hop {
      0%, 10% { transform: translateY(0px); }
      15% { transform: translateY(-8px); }
      20%, 40% { transform: translateY(0px); }
      45% { transform: translateY(-4px); }
      50%, 70% { transform: translateY(0px); }
      73% { transform: translateY(-10px); }
      76%, 100% { transform: translateY(0px); }
    }
    
    @keyframes tongue {
      0%, 43% { opacity: 0; transform: scaleX(0); }
      44% { opacity: 1; transform: scaleX(1); }
      47% { opacity: 1; transform: scaleX(1); }
      48%, 100% { opacity: 0; transform: scaleX(0); }
    }
    
    .frog { 
      animation: hop 5s ease-in-out infinite; 
      transform-origin: center bottom;
    }
    
    .tongue {
      animation: tongue 5s ease-in-out infinite;
      transform-origin: left center;
    }
  </style>
  
  <g class="frog">
    <!-- Shadow -->
    <ellipse cx="16" cy="27" rx="7" ry="2" fill="#000" opacity="0.15"/>
    
    <!-- Frog body -->
    
    <!-- Back legs -->
    <rect x="6" y="20" width="5" height="6" fill="#4a9e4a"/>
    <rect x="21" y="20" width="5" height="6" fill="#4a9e4a"/>
    
    <!-- Feet -->
    <rect x="4" y="25" width="7" height="3" fill="#4a9e4a"/>
    <rect x="21" y="25" width="7" height="3" fill="#4a9e4a"/>
    
    <!-- Round body -->
    <rect x="9" y="14" width="14" height="11" fill="#5cb85c"/>
    
    <!-- Round belly -->
    <rect x="11" y="18" width="10" height="6" fill="#8ed68e"/>
    <rect x="12" y="19" width="8" height="4" fill="#a5dfa5"/>
    
    <!-- Head -->
    <rect x="8" y="8" width="16" height="8" fill="#5cb85c"/>
    
    <!-- Eyes -->
    <rect x="7" y="6" width="5" height="5" fill="#5cb85c"/>
    <rect x="20" y="6" width="5" height="5" fill="#5cb85c"/>
    
    <!-- Pupils -->
    <rect x="8" y="7" width="3" height="3" fill="#000"/>
    <rect x="21" y="7" width="3" height="3" fill="#000"/>
    
    <!-- Eye shines -->
    <rect x="9" y="7" width="2" height="2" fill="#fff"/>
    <rect x="22" y="7" width="2" height="2" fill="#fff"/>
    
    <!-- Nostrils -->
    <rect x="14" y="10" width="1" height="1" fill="#3d8b3d"/>
    <rect x="17" y="10" width="1" height="1" fill="#3d8b3d"/>
    
    <!-- Mouth -->
    <rect x="11" y="13" width="10" height="1" fill="#3d8b3d"/>
    <rect x="10" y="12" width="1" height="1" fill="#3d8b3d"/>
    <rect x="21" y="12" width="1" height="1" fill="#3d8b3d"/>
    
    <!-- Tongue -->
    <g class="tongue">
      <rect x="21" y="12" width="6" height="2" fill="#ff6b9d"/>
      <rect x="26" y="11" width="2" height="4" fill="#ff6b9d"/>
      <!-- Tongue tip -->
      <rect x="27" y="12" width="1" height="2" fill="#ff4757"/>
    </g>
    
    <!-- Arms -->
    <rect x="7" y="16" width="4" height="4" fill="#5cb85c"/>
    <rect x="21" y="16" width="4" height="4" fill="#5cb85c"/>
    
    <!-- Hands -->
    <rect x="6" y="19" width="3" height="2" fill="#5cb85c"/>
    <rect x="23" y="19" width="3" height="2" fill="#5cb85c"/>
    
    <!-- Dart frog markings -->
    <rect x="12" y="9" width="2" height="1" fill="#4a9e4a"/>
    <rect x="18" y="9" width="2" height="1" fill="#4a9e4a"/>
    <rect x="15" y="15" width="1" height="2" fill="#4a9e4a"/>
    <rect x="19" y="16" width="2" height="1" fill="#4a9e4a"/>
    <rect x="11" y="17" width="2" height="1" fill="#4a9e4a"/>
  </g>
</svg>
